<svg xmlns="http://www.w3.org/2000/svg" viewBox="161 102 380 380" fill="none">
<path d="M436,401.4949951171875L463.190185546875,453.16595458984375L480.77752685546875,453.16595458984375L531.4705810546875,453.16595458984375C526.1843872070312,443.6239013671875,523.2322998046875,440.06683349609375,518,430.4949951171875L436,401.4949951171875" style="fill: rgb(6, 15, 84);"/>
<path d="M171.91796875,453.4949951171875C171.70428466796875,453.369384765625,171.49383544921875,453.245361328125,171.2867431640625,453.12298583984375C182.77978515625,432.510986328125,194.146728515625,411.8280029296875,205.38775634765625,391.0770263671875L267.509765625,277.4530029296875L293.0977783203125,230.29299926757812C299.291748046875,218.78298950195312,305.5057373046875,206.62600708007812,312.3087158203125,195.54000854492188L312.3087158203125,195.54000854492188C314.11279296875,197.48300170898438,319.53173828125,208.94699096679688,321.331787109375,212.1619873046875C329.9837646484375,227.60800170898438,338.19976806640625,246.71697998046875,347.1617431640625,261.73199462890625C341.0107421875,271.78302001953125,334.59674072265625,284.04803466796875,328.6927490234375,294.47796630859375L283.6397705078125,374.85601806640625L243.78173828125,445.44000244140625C242.3011474609375,448.0775146484375,240.7833251953125,450.77008056640625,239.25,453.4949951171875L171.91796875,453.4949951171875" style="fill: rgb(6, 15, 84);"/>
<path d="M354.1767578125,122C356.5567626953125,124.17498779296875,371.884765625,152.96499633789062,374.28973388671875,157.22299194335938L443.5977783203125,281.614013671875C458.7557373046875,309.88897705078125,474.19677734375,338.01202392578125,489.9207763671875,365.97698974609375C481.977783203125,362.87701416015625,474.06976318359375,359.6920166015625,466.19573974609375,356.4219970703125C444.63275146484375,347.03399658203125,423.31976318359375,339.2080078125,401.98773193359375,328.8330078125C383.83575439453125,296.4530029296875,365.93072509765625,263.93499755859375,348.2747802734375,231.28201293945312C339.40576171875,214.77499389648438,330.83074951171875,197.2030029296875,321.7667236328125,181.03201293945312C325.875732421875,171.93099975585938,332.6387939453125,160.39199829101562,337.479736328125,151.39199829101562C342.44573974609375,142.15899658203125,348.45574951171875,130.42800903320312,354.1767578125,122L354.1767578125,122" style="fill: rgb(6, 15, 84);"/>
<path d="M314.57275390625,342.21099853515625L276.57275390625,407.21099853515625L321.57275390625,374.21099853515625L403,379.4949951171875L516.57275390625,423.21099853515625L494,381.4949951171875L403,346.4949951171875L314.57275390625,342.21099853515625" style="fill: rgb(0, 149, 216);"/>
</svg>
